<?xml version="1.0" encoding="UTF-8" standalone="no"?>
<svg
   xmlns:dc="http://purl.org/dc/elements/1.1/"
   xmlns:cc="http://creativecommons.org/ns#"
   xmlns:rdf="http://www.w3.org/1999/02/22-rdf-syntax-ns#"
   xmlns:svg="http://www.w3.org/2000/svg"
   xmlns="http://www.w3.org/2000/svg"
   xmlns:xlink="http://www.w3.org/1999/xlink"
   version="1.1"
   id="Layer_1"
   x="0px"
   y="0px"
   viewBox="0 0 391.00001 63.000001"
   xml:space="preserve"
   width="391"
   height="63"><metadata
   id="metadata1117"><rdf:RDF><cc:Work
       rdf:about=""><dc:format>image/svg+xml</dc:format><dc:type
         rdf:resource="http://purl.org/dc/dcmitype/StillImage" /><dc:title></dc:title></cc:Work></rdf:RDF></metadata><defs
   id="defs1115" />
<style
   type="text/css"
   id="style975">
	.st0{clip-path:url(#SVGID_2_);fill:url(#SVGID_3_);}
	.st1{clip-path:url(#SVGID_5_);fill:url(#SVGID_6_);}
	.st2{clip-path:url(#SVGID_8_);fill:url(#SVGID_9_);}
	.st3{clip-path:url(#SVGID_11_);fill:url(#SVGID_12_);}
	.st4{clip-path:url(#SVGID_14_);fill:url(#SVGID_15_);}
	.st5{clip-path:url(#SVGID_17_);fill:url(#SVGID_18_);}
	.st6{clip-path:url(#SVGID_20_);fill:url(#SVGID_21_);}
	.st7{clip-path:url(#SVGID_23_);fill:url(#SVGID_24_);}
	.st8{clip-path:url(#SVGID_26_);fill:url(#SVGID_27_);}
</style>








<g
   id="g2966"
   transform="matrix(1.7006803,0,0,1.7006803,-0.51020409,-0.85034011)"><g
     id="g4387"
     transform="translate(15.737783,7.6440014)"><g
       id="g3951"><g
         id="g1034"
         transform="translate(-2.0248193)"><g
           id="g990"
           transform="matrix(1.0103092,0,0,1.0103092,-0.00309276,-0.00515458)">
	<defs
   id="defs978"><rect
     id="SVGID_1_"
     x="0.30000001"
     y="0.5"
     width="6.0999999"
     height="29.1" /></defs>
	<clipPath
   id="SVGID_2_">
		<use
   xlink:href="#SVGID_1_"
   style="overflow:visible"
   id="use980"
   x="0"
   y="0"
   width="100%"
   height="100%" />
	</clipPath>
	
		<linearGradient
   id="SVGID_3_"
   gradientUnits="userSpaceOnUse"
   x1="-207.7059"
   y1="116.8102"
   x2="-207.3037"
   y2="116.8102"
   gradientTransform="matrix(0,55.9999,55.9999,0,-6538.0161,11635.585)">
		<stop
   offset="0"
   style="stop-color:#F1F1F1"
   id="stop983" />
		<stop
   offset="1"
   style="stop-color:#808184"
   id="stop985" />
	</linearGradient>
	<rect
   x="0.30000001"
   y="0.5"
   class="st0"
   width="6.0999999"
   height="29.1"
   clip-path="url(#SVGID_2_)"
   id="rect988"
   style="fill:url(#SVGID_3_)" />
</g><g
           id="g1005"
           transform="matrix(1.0103093,0,0,1.0103093,-0.44742195,-0.00515593)">
	<defs
   id="defs993"><polygon
     id="SVGID_4_"
     points="68.8,29.6 49.5,10.6 49.5,29.6 43.4,29.6 43.4,0.5 48,0.5 67.3,19.5 67.3,0.5 73.4,0.5 73.4,29.6 " /></defs>
	<clipPath
   id="SVGID_5_">
		<use
   xlink:href="#SVGID_4_"
   style="overflow:visible"
   id="use995"
   x="0"
   y="0"
   width="100%"
   height="100%" />
	</clipPath>
	
		<linearGradient
   id="SVGID_6_"
   gradientUnits="userSpaceOnUse"
   x1="-207.7059"
   y1="115.3494"
   x2="-207.3037"
   y2="115.3494"
   gradientTransform="matrix(0,56,56,0,-6401.1685,11635.596)">
		<stop
   offset="0"
   style="stop-color:#F1F1F1"
   id="stop998" />
		<stop
   offset="1"
   style="stop-color:#808184"
   id="stop1000" />
	</linearGradient>
	<rect
   x="43.400002"
   y="0.5"
   class="st1"
   width="30"
   height="29.1"
   clip-path="url(#SVGID_5_)"
   id="rect1003"
   style="fill:url(#SVGID_6_)" />
</g><g
           id="g1020"
           transform="matrix(1.0103092,0,0,1.0103092,-0.08969045,-0.00515458)">
	<defs
   id="defs1008"><path
     id="SVGID_7_"
     d="m 16.3,6.2 h 15.8 c 0.6,0 1.1,0.2 1.4,0.6 0.4,0.4 0.6,0.9 0.6,1.4 v 13.7 c 0,0.6 -0.2,1 -0.6,1.4 -0.4,0.4 -0.8,0.6 -1.5,0.6 H 16.3 Z M 8.7,0.5 v 5.8 h 1.5 v 17.6 5.8 H 33 c 2,0 3.7,-0.7 5.1,-2.1 1.4,-1.4 2.1,-3.1 2.1,-5.1 V 7.7 C 40.2,5.7 39.5,4 38.1,2.6 36.7,1.2 35,0.5 33,0.5 Z" /></defs>
	<clipPath
   id="SVGID_8_">
		<use
   xlink:href="#SVGID_7_"
   style="overflow:visible"
   id="use1010"
   x="0"
   y="0"
   width="100%"
   height="100%" />
	</clipPath>
	
		<linearGradient
   id="SVGID_9_"
   gradientUnits="userSpaceOnUse"
   x1="-207.7059"
   y1="116.2495"
   x2="-207.3037"
   y2="116.2495"
   gradientTransform="matrix(0,55.9999,55.9999,0,-6485.481,11635.585)">
		<stop
   offset="0"
   style="stop-color:#F1F1F1"
   id="stop1013" />
		<stop
   offset="1"
   style="stop-color:#808184"
   id="stop1015" />
	</linearGradient>
	<rect
   x="8.6999998"
   y="0.5"
   class="st2"
   width="31.5"
   height="29.1"
   clip-path="url(#SVGID_8_)"
   id="rect1018"
   style="fill:url(#SVGID_9_)" />
</g><g
           id="g1035"
           transform="matrix(1.0137931,0,0,1.0137931,-1.0675849,-0.41241461)">
	<defs
   id="defs1023"><path
     id="SVGID_10_"
     d="m 83.9,0.9 c -1.8,0 -3.3,0.6 -4.6,1.9 -1.3,1.3 -1.9,2.8 -1.9,4.6 v 2.8 c 0,1.8 0.6,3.3 1.9,4.6 1.3,1.3 2.8,1.9 4.6,1.9 h 14.5 c 1,0 1.8,0.3 2.5,1 0.7,0.7 1,1.5 1,2.5 v 2.6 c 0,1 -0.3,1.8 -1,2.5 -0.7,0.7 -1.5,1 -2.5,1 h -20 v 3.6 h 21 c 1.8,0 3.3,-0.6 4.6,-1.9 1.3,-1.3 1.9,-2.8 1.9,-4.6 v -3.9 c 0,-1.8 -0.6,-3.3 -1.9,-4.6 C 102.7,13.6 101.2,13 99.4,13 H 84.9 c -1,0 -1.8,-0.3 -2.5,-1 -0.7,-0.7 -1,-1.5 -1,-2.5 V 8 c 0,-1 0.3,-1.8 1,-2.5 0.7,-0.7 1.5,-1 2.5,-1 H 104 V 0.9 Z" /></defs>
	<clipPath
   id="SVGID_11_">
		<use
   xlink:href="#SVGID_10_"
   style="overflow:visible"
   id="use1025"
   x="0"
   y="0"
   width="100%"
   height="100%" />
	</clipPath>
	
		<linearGradient
   id="SVGID_12_"
   gradientUnits="userSpaceOnUse"
   x1="-207.7063"
   y1="114.3622"
   x2="-207.30409"
   y2="114.3622"
   gradientTransform="matrix(0,72.0972,72.0972,0,-8153.5254,14975.949)">
		<stop
   offset="0"
   style="stop-color:#23BFD4"
   id="stop1028" />
		<stop
   offset="1"
   style="stop-color:#025778"
   id="stop1030" />
	</linearGradient>
	<rect
   x="77.400002"
   y="0.89999998"
   class="st3"
   width="28.6"
   height="29"
   clip-path="url(#SVGID_11_)"
   id="rect1033"
   style="fill:url(#SVGID_12_)" />
</g><g
           id="g1050"
           transform="matrix(1.0137931,0,0,1.0137931,-1.5062051,-0.41241461)">
	<defs
   id="defs1038"><path
     id="SVGID_13_"
     d="m 109.2,0.9 v 22.5 c 0,1.8 0.6,3.3 1.9,4.6 1.3,1.3 2.8,1.9 4.6,1.9 h 21.2 v -3.6 h -20.2 c -1,0 -1.8,-0.3 -2.5,-1 -0.7,-0.7 -1,-1.5 -1,-2.5 V 0.9 Z" /></defs>
	<clipPath
   id="SVGID_14_">
		<use
   xlink:href="#SVGID_13_"
   style="overflow:visible"
   id="use1040"
   x="0"
   y="0"
   width="100%"
   height="100%" />
	</clipPath>
	
		<linearGradient
   id="SVGID_15_"
   gradientUnits="userSpaceOnUse"
   x1="-207.7063"
   y1="113.7162"
   x2="-207.30409"
   y2="113.7162"
   gradientTransform="matrix(0,72.0972,72.0972,0,-8075.6147,14975.949)">
		<stop
   offset="0"
   style="stop-color:#23BFD4"
   id="stop1043" />
		<stop
   offset="1"
   style="stop-color:#025778"
   id="stop1045" />
	</linearGradient>
	<rect
   x="109.2"
   y="0.89999998"
   class="st4"
   width="27.700001"
   height="29"
   clip-path="url(#SVGID_14_)"
   id="rect1048"
   style="fill:url(#SVGID_15_)" />
</g><g
           id="g1065"
           transform="matrix(1.0137931,0,0,1.0137931,-2.4096523,-0.41241461)">
	<defs
   id="defs1053"><polygon
     id="SVGID_16_"
     points="174.7,4.5 186.5,4.5 186.5,29.9 190.5,29.9 190.5,4.5 202.4,4.5 202.4,0.9 174.7,0.9 " /></defs>
	<clipPath
   id="SVGID_17_">
		<use
   xlink:href="#SVGID_16_"
   style="overflow:visible"
   id="use1055"
   x="0"
   y="0"
   width="100%"
   height="100%" />
	</clipPath>
	
		<linearGradient
   id="SVGID_18_"
   gradientUnits="userSpaceOnUse"
   x1="-207.7063"
   y1="112.3652"
   x2="-207.30409"
   y2="112.3652"
   gradientTransform="matrix(0,72.0972,72.0972,0,-7912.6699,14975.949)">
		<stop
   offset="0"
   style="stop-color:#23BFD4"
   id="stop1058" />
		<stop
   offset="1"
   style="stop-color:#025778"
   id="stop1060" />
	</linearGradient>
	<rect
   x="174.7"
   y="0.89999998"
   class="st5"
   width="27.700001"
   height="29"
   clip-path="url(#SVGID_17_)"
   id="rect1063"
   style="fill:url(#SVGID_18_)" />
</g><g
           id="g950"
           transform="matrix(1.0204081,0,0,1.0204081,-0.00612243,-0.61020372)"><g
             id="g1080"
             transform="matrix(1.0004166,0,0,1.0004166,-2.854373,-0.01245833)">
	<defs
   id="defs1068"><polygon
     id="SVGID_19_"
     points="162.2,13.9 157.4,13.2 155.3,8.9 153.2,13.2 148.4,13.9 151.9,17.2 151.1,21.9 155.3,19.7 159.5,21.9 158.7,17.2 " /></defs>
	<clipPath
   id="SVGID_20_">
		<use
   xlink:href="#SVGID_19_"
   style="overflow:visible"
   id="use1070"
   x="0"
   y="0"
   width="100%"
   height="100%" />
	</clipPath>
	
		<linearGradient
   id="SVGID_21_"
   gradientUnits="userSpaceOnUse"
   x1="-207.7124"
   y1="111.8914"
   x2="-207.3102"
   y2="111.8914"
   gradientTransform="matrix(0,32.4706,32.4706,0,-3477.8762,6753.4155)">
		<stop
   offset="0"
   style="stop-color:#23BFD4"
   id="stop1073" />
		<stop
   offset="1"
   style="stop-color:#025778"
   id="stop1075" />
	</linearGradient>
	<rect
   x="148.39999"
   y="8.8999996"
   class="st6"
   width="13.7"
   height="13.1"
   clip-path="url(#SVGID_20_)"
   id="rect1078"
   style="fill:url(#SVGID_21_)" />
</g><g
             id="g1095"
             transform="matrix(1.0004166,0,0,1.0004166,-2.854373,-0.01245833)">
	<defs
   id="defs1083"><path
     id="SVGID_22_"
     d="m 166.5,22.9 c 0,1 -0.3,1.8 -1,2.5 -0.7,0.7 -1.5,1 -2.5,1 h -15.6 c -1,0 -1.8,-0.3 -2.5,-1 -0.7,-0.7 -1,-1.5 -1,-2.5 v -7.5 l -4,1.4 v 6.6 c 0,1.8 0.6,3.3 1.9,4.6 1.3,1.3 2.8,1.9 4.6,1.9 H 164 c 1.8,0 3.3,-0.6 4.6,-1.9 1.3,-1.3 1.9,-2.8 1.9,-4.6 v -6.7 l -4,-1.4 z" /></defs>
	<clipPath
   id="SVGID_23_">
		<use
   xlink:href="#SVGID_22_"
   style="overflow:visible"
   id="use1085"
   x="0"
   y="0"
   width="100%"
   height="100%" />
	</clipPath>
	
		<linearGradient
   id="SVGID_24_"
   gradientUnits="userSpaceOnUse"
   x1="-208.6049"
   y1="114.1459"
   x2="-208.2027"
   y2="114.1459"
   gradientTransform="matrix(75.7188,0,0,-75.7188,15935.373,8665.5742)">
		<stop
   offset="0"
   style="stop-color:#894C92"
   id="stop1088" />
		<stop
   offset="1"
   style="stop-color:#3869B1"
   id="stop1090" />
	</linearGradient>
	<rect
   x="140.10001"
   y="15.3"
   class="st7"
   width="30.5"
   height="14.6"
   clip-path="url(#SVGID_23_)"
   id="rect1093"
   style="fill:url(#SVGID_24_)" />
</g><g
             id="g1110"
             transform="matrix(1.0004166,0,0,1.0004166,-2.854373,-0.01245833)">
	<defs
   id="defs1098"><path
     id="SVGID_25_"
     d="m 146.6,1.1 c -1.8,0 -3.3,0.6 -4.6,1.9 -1.3,1.3 -1.9,2.8 -1.9,4.6 v 9.2 l 4,-1.4 V 8.1 c 0,-1 0.3,-1.8 1,-2.5 0.7,-0.7 1.5,-1 2.5,-1 h 15.6 c 1,0 1.8,0.3 2.5,1 0.7,0.7 1,1.5 1,2.5 v 7.2 l 4,1.4 V 7.6 C 170.7,5.8 170.1,4.3 168.8,3 167.5,1.7 166,1.1 164.2,1.1 Z" /></defs>
	<clipPath
   id="SVGID_26_">
		<use
   xlink:href="#SVGID_25_"
   style="overflow:visible"
   id="use1100"
   x="0"
   y="0"
   width="100%"
   height="100%" />
	</clipPath>
	
		<linearGradient
   id="SVGID_27_"
   gradientUnits="userSpaceOnUse"
   x1="-208.6049"
   y1="113.8778"
   x2="-208.2027"
   y2="113.8778"
   gradientTransform="matrix(75.7188,0,0,-75.7188,15935.373,8631.6172)">
		<stop
   offset="0"
   style="stop-color:#0CB586"
   id="stop1103" />
		<stop
   offset="1"
   style="stop-color:#009ED1"
   id="stop1105" />
	</linearGradient>
	<rect
   x="140.10001"
   y="1.1"
   class="st8"
   width="30.5"
   height="15.7"
   clip-path="url(#SVGID_26_)"
   id="rect1108"
   style="fill:url(#SVGID_27_)" />
</g></g></g></g></g></g>
</svg>
