<?xml version="1.0" encoding="utf-8"?>
<!-- Generator: Adobe Illustrator 21.1.0, SVG Export Plug-In . SVG Version: 6.00 Build 0)  -->
<svg version="1.1" id="Layer_1" xmlns="http://www.w3.org/2000/svg" xmlns:xlink="http://www.w3.org/1999/xlink" x="0px" y="0px"
	 viewBox="0 0 800 800" style="enable-background:new 0 0 800 800;" xml:space="preserve">
<style type="text/css">
	.st1{fill:#FCAF17;}
	.st2{fill:#FFFFFF;}
	.st3{fill:#F29100;}
	.st4{fill:url(#SVGID_1_);}
	.st5{clip-path:url(#SVGID_3_);fill:url(#SVGID_4_);}
	.st6{clip-path:url(#SVGID_6_);fill:url(#SVGID_7_);}
	.st7{clip-path:url(#SVGID_9_);fill:url(#SVGID_10_);}
	.st8{fill:#EC1C24;}
	.st9{fill:#F96432;}
	.st10{fill:#FFE20A;}
	.st11{fill:#C09A5C;}
	.st12{fill:url(#SVGID_11_);}
	.st13{fill:url(#SVGID_12_);}
	.st14{fill:url(#SVGID_13_);}
	.st15{fill:url(#SVGID_14_);}
	.st16{fill:#EB088C;}
	.st17{fill:#EC2027;}
	.st18{fill:#00AEEF;}
	.st19{fill:#00B5A5;}
	.st20{fill:#FFE600;}
	.st21{fill:#FBB041;}
	.st22{fill:#77BD1F;}
	.st23{fill:url(#SVGID_15_);}
	.st24{fill:url(#SVGID_16_);}
	.st25{fill:url(#SVGID_17_);}
	.st26{fill:url(#SVGID_18_);}
	.st27{fill:url(#SVGID_19_);}
	.st28{fill:#EE1C25;}
	.st29{fill:#6412E6;}
	.st30{fill:#FE7101;}
	.st31{fill:#E017DF;}
	.st32{fill:#1DBFE5;}
	.st33{fill:#FDB91A;}
	.st34{fill:#E41A73;}
	.st35{fill:#15E696;}
	.st36{fill:#2084E6;}
	.st37{fill:#EB5115;}
	.st38{fill:url(#SVGID_20_);}
	.st39{fill:url(#SVGID_21_);}
	.st40{fill:#F2F2F2;}
	.st41{fill:#FFCC29;}
	.st42{fill:#333333;}
	.st43{fill:url(#SVGID_22_);}
	.st44{fill:#E6E6E6;}
	.st45{fill:#DE1C31;}
	.st46{fill:url(#SVGID_23_);}
	.st47{fill:url(#SVGID_24_);}
	.st48{fill:#FBB03B;}
	.st49{fill:url(#SVGID_25_);}
	.st50{fill:url(#SVGID_26_);}
	.st51{fill:url(#SVGID_27_);}
</style>
<linearGradient id="SVGID_1_" gradientUnits="userSpaceOnUse" x1="400.3098" y1="691.313" x2="399.6335" y2="106.5711">
	<stop  offset="0" style="stop-color:#007F0F"/>
	<stop  offset="1" style="stop-color:#00FFFF"/>
</linearGradient>
<path class="st4" d="M333.5,615.3c-2.3,0.9-6.4,1.9-10,3.9c-18.1,9.8-36.1,19.9-54.1,29.9c-1.5,0.9-3,1.6-4.6,2.3
	c-9,3.5-15.7-0.9-15.9-10.6c-0.4-21.7-0.7-43.5-1.1-65.2c-0.2-10.3-4.7-17.9-14.2-22.2c-2.4-1.1-5.1-1.6-7.7-1.7
	c-21.7-0.5-43.5-0.9-65.2-1.2c-14.1-0.2-18.5-7.7-11.6-20c9.7-17.5,19.6-34.9,29.5-52.3c8.8-15.5,5.8-26.8-9.6-36
	c-15.9-9.4-31.9-18.8-47.8-28.2c-2.1-1.3-4.3-2.5-6.4-3.9c-9.3-6.2-9.5-14.5,0-20.4c12.4-7.8,25.2-15.1,37.8-22.6
	c5.6-3.3,11.2-6.6,16.8-9.9c14.9-9,18-20.2,9.5-35.2c-9.7-17.3-19.4-34.6-29.2-51.8c-0.7-1.2-1.3-2.3-1.9-3.5
	c-4.7-9.7-0.3-17.3,10.6-17.5c12-0.3,24.1-0.2,36.1-0.4c10.7-0.2,21.4-0.4,32-0.8c11.2-0.4,20.6-9.8,21.4-21.5c0.3-4,0.1-8,0.2-12
	c0.3-18.1,0.7-36.2,1-54.3c0.2-11.9,7.8-16.3,18.4-10.6c10.2,5.5,20.4,11.3,30.5,16.9c8.7,4.8,17.3,9.7,26,14.4
	c12.8,6.9,25.3,3.4,32.9-9.1c10.7-17.8,21.4-35.7,32.2-53.4c7.3-12.1,16-12,23.3,0.1c10.5,17.5,21,35,31.5,52.5
	c8.2,13.7,20.5,17,34.6,9.3c17.4-9.6,34.7-19.2,52-28.9c1.5-0.8,3-1.7,4.5-2.5c9.6-4.6,16.9-0.3,17.2,10.3c0.5,21.2,0.7,42.3,1,63.5
	c0.2,10.8,4.4,19.2,14.7,23.7c2.3,1,4.7,1.5,7.2,1.5c21.6,0.5,43.1,0.9,64.7,1.1c15.1,0.2,19.5,7.6,12,20.9
	c-10,17.8-20,35.6-30,53.4c-7.4,13.2-4,25.5,9,33.2c18,10.7,36.1,21.4,54.2,32.1c10.1,6,10.1,16.4,0.1,22.4
	c-17.8,10.7-35.7,21.3-53.6,31.8c-13.7,8.1-17.1,20.2-9.4,33.9c9.6,17.1,19.2,34.2,28.9,51.4c1,1.8,2.1,3.6,3,5.5
	c4.2,9.3-0.3,16.6-10.5,16.9c-12.4,0.3-24.9,0.2-37.2,0.4c-9.3,0.2-18.7,0.6-28,0.7c-14.9,0.2-24.6,9.7-24.8,24.7
	c-0.1,9.3,0,18.7-0.1,28.1c-0.2,12-0.4,24-0.8,36c-0.4,11-7.8,15.4-17.6,10.2c-16.8-9-33.4-18.5-50.1-27.6c-4.5-2.5-9-5.3-13.8-6.7
	c-10.3-3-20.2,1.7-26.2,11.5c-10.5,17.3-20.8,34.7-31.2,52c-0.9,1.5-1.7,3-2.7,4.4c-5.8,8.3-14.5,8.4-19.9-0.2
	c-7.2-11.4-14-23.1-21-34.7c-4.5-7.5-9-15.1-13.6-22.5C351.2,618.9,344.1,615.4,333.5,615.3z M402.9,368.4c-1.4-2.2-2.5-3.7-3.4-5.3
	c-18.4-30.6-36.7-61.2-55.2-91.6c-1.3-2.2-4.4-4.8-6.6-4.8c-26.2-0.3-52.3-0.2-78.5-0.3c-3.3,0-5,1.1-5,4.5c0,17.5,0,35.1,0,52.7
	c0,3,1,4.7,4.4,4.4c1.7-0.2,3.5,0.2,5.1-0.1c5.7-0.9,7.4,1.1,7.4,7.1c-0.2,64.3-0.1,128.6-0.3,192.9c0,5.6,1.8,7.1,7.1,7
	c20-0.3,40.1-0.3,60.1,0c6,0.1,7.2-2,7.2-7.6c-0.3-37.4-0.2-74.8-0.2-112.2c0-1.9,0-3.8,0-5.7l1.1-0.1l56.4,93.2l57.4-94.6
	c0,41.2,0.1,80.5-0.1,119.8c0,5.4,1.4,7.3,7,7.2c20.2-0.3,40.5-0.1,60.7-0.1c2,0,4.1-0.4,6.4-0.6c0.1-2.2,0.3-3.9,0.3-5.6
	c0-85.5,0-171,0.1-256.5c0-4.3-1-6-5.7-5.9c-19.9,0.2-39.7,0.2-59.6,0c-3.7,0-5.8,1.2-7.8,4.4c-10.7,18.2-21.7,36.4-32.6,54.5
	C420.3,339.4,411.8,353.6,402.9,368.4z"/>
</svg>
